<svg xmlns="http://www.w3.org/2000/svg" width="26.21" height="26.438" viewBox="0 0 26.21 26.438">
  <g id="Search_Icon_1_" transform="translate(0 0)">
    <path id="Path_6703" data-name="Path 6703" d="M-813.931-9768.783a10.177,10.177,0,0,1-7.2-2.914l-.172-.172a10.506,10.506,0,0,1,0-14.746h0a9.918,9.918,0,0,1,7.2-3.085h.086a10.252,10.252,0,0,1,7.2,2.915l.172.172a10.5,10.5,0,0,1,0,14.745A9.785,9.785,0,0,1-813.931-9768.783Zm.086-18.347h0a7.648,7.648,0,0,0-5.487,2.315h0a8.024,8.024,0,0,0,0,11.145l.086.086a7.711,7.711,0,0,0,10.887-.086,8.024,8.024,0,0,0,0-11.145l-.086-.086A7.815,7.815,0,0,0-813.845-9787.13Z" transform="translate(824.325 9789.7)" fill="#fff"/>
    <rect id="Rectangle_4427" data-name="Rectangle 4427" width="2.572" height="11.573" transform="translate(16.204 18.258) rotate(-45.028)" fill="#fff"/>
  </g>
</svg>
