<svg xmlns="http://www.w3.org/2000/svg" width="8.784" height="14.637" viewBox="0 0 8.784 14.637">
  <g id="Combined_Shape" data-name="Combined Shape" transform="translate(0.354 0.354)" fill="#006ba6" stroke-miterlimit="10">
    <path d="M 6.856627464294434 14.10744571685791 L 6.767537117004395 14.02100563049316 L 6.76682710647583 14.02030563354492 L -0.08838272839784622 7.165985584259033 L -0.1767827272415161 7.077605724334717 L -0.08839272707700729 6.989205837249756 L 6.98920726776123 -0.08839420974254608 L 7.077607154846191 -0.1767842173576355 L 7.165987491607666 -0.08838421106338501 L 8.165826797485352 0.911585807800293 L 8.254207611083984 0.9999758005142212 L 8.165826797485352 1.088355779647827 L 2.176578044891357 7.077595233917236 L 7.943517208099365 12.84377574920654 L 8.031917572021484 12.93215560913086 L 7.943527221679688 13.02055549621582 L 6.944397449493408 14.01968574523926 L 6.856627464294434 14.10744571685791 Z" stroke="none"/>
    <path d="M 6.855297088623047 13.9319953918457 L 6.856007099151611 13.93129539489746 L 7.855137348175049 12.93216609954834 L 1.999797224998474 7.077595710754395 L 8.077437400817871 0.9999657869338989 L 7.077597141265869 -4.211425675748615e-06 L -2.73010255114059e-06 7.077595710754395 L 6.854587078094482 13.93129539489746 L 6.855297088623047 13.9319953918457 M 6.85725736618042 14.28359603881836 L 6.679777145385742 14.11002540588379 L 6.679067134857178 14.10932540893555 L -0.176772728562355 7.254385948181152 L -0.3535627424716949 7.077605724334717 L -0.1767827272415161 6.900815963745117 L 6.900817394256592 -0.1767842173576355 L 7.077607154846191 -0.3535642027854919 L 7.254387378692627 -0.1767742186784744 L 8.254227638244629 0.8231958150863647 L 8.430976867675781 0.9999758005142212 L 8.254217147827148 1.176745772361755 L 2.353368997573853 7.077584266662598 L 8.031907081604004 12.75537586212158 L 8.208706855773926 12.93215560913086 L 8.031917572021484 13.10894584655762 L 7.032787322998047 14.10807609558105 L 6.85725736618042 14.28359603881836 Z" stroke="none" fill="#f8fafc"/>
  </g>
</svg>
